<?xml version="1.0" encoding="UTF-8" standalone="no"?>
<!-- Created with Inkscape (http://www.inkscape.org/) -->

<svg
   xmlns:dc="http://purl.org/dc/elements/1.1/"
   xmlns:cc="http://creativecommons.org/ns#"
   xmlns:rdf="http://www.w3.org/1999/02/22-rdf-syntax-ns#"
   xmlns:svg="http://www.w3.org/2000/svg"
   xmlns="http://www.w3.org/2000/svg"
   xmlns:sodipodi="http://sodipodi.sourceforge.net/DTD/sodipodi-0.dtd"
   xmlns:inkscape="http://www.inkscape.org/namespaces/inkscape"
   width="32"
   height="32"
   viewBox="0 0 32 32.000001"
   id="svg4238"
   version="1.1"
   inkscape:version="0.92.2 5c3e80d, 2017-08-06"
   sodipodi:docname="debian_icon.svg"
   inkscape:export-filename="/Users/toddcope/T3/Projects/Apps/OMO/icons/android_icon-xhdpi_96.png"
   inkscape:export-xdpi="288.00003"
   inkscape:export-ydpi="288.00003">
  <defs
     id="defs4240" />
  <sodipodi:namedview
     id="base"
     pagecolor="#ffffff"
     bordercolor="#666666"
     borderopacity="1.0"
     inkscape:pageopacity="0.0"
     inkscape:pageshadow="2"
     inkscape:zoom="22.4"
     inkscape:cx="21.839864"
     inkscape:cy="17.672129"
     inkscape:document-units="px"
     inkscape:current-layer="layer1"
     showgrid="true"
     units="px"
     inkscape:window-width="1920"
     inkscape:window-height="1035"
     inkscape:window-x="0"
     inkscape:window-y="1"
     inkscape:window-maximized="1">
    <inkscape:grid
       type="xygrid"
       id="grid4800" />
  </sodipodi:namedview>
  <metadata
     id="metadata4243">
    <rdf:RDF>
      <cc:Work
         rdf:about="">
        <dc:format>image/svg+xml</dc:format>
        <dc:type
           rdf:resource="http://purl.org/dc/dcmitype/StillImage" />
        <dc:title />
      </cc:Work>
    </rdf:RDF>
  </metadata>
  <g
     inkscape:label="Layer 1"
     inkscape:groupmode="layer"
     id="layer1"
     transform="translate(0,-1020.3622)">
    <path
       id="path940"
       d="m 18,1027.3622 v 1 h -4 v 1 h -4 v 7 H 6 v 1 H 5 v 1 H 4 v 5 h 1 v 1 h 1 v 1 h 5 v -1 h 1 v 2 h 4 v -5 h 2 v 5 h 4 v -4 h 1 v 1 h 5 v -1 h 1 v -1 h 1 v -5 h -1 v -1 h -1 v -1 h -4 v -7 z m 2,3 h 1 v 5 h -3 v 1 h -2 v -1 h -3 v -3 h 3 v -1 h 4 z"
       style="fill:#000000;fill-opacity:0.25098041;fill-rule:evenodd;stroke:none;stroke-width:1px;stroke-linecap:butt;stroke-linejoin:miter;stroke-opacity:1"
       inkscape:connector-curvature="0" />
    <path
       style="fill:#ffffff;fill-rule:evenodd;stroke:none;stroke-width:1px;stroke-linecap:butt;stroke-linejoin:miter;stroke-opacity:1;fill-opacity:1"
       d="M 17 6 L 17 7 L 13 7 L 13 8 L 9 8 L 9 15 L 5 15 L 5 16 L 4 16 L 4 17 L 3 17 L 3 22 L 4 22 L 4 23 L 5 23 L 5 24 L 10 24 L 10 23 L 11 23 L 11 25 L 15 25 L 15 20 L 17 20 L 17 25 L 21 25 L 21 21 L 22 21 L 22 22 L 27 22 L 27 21 L 28 21 L 28 20 L 29 20 L 29 15 L 28 15 L 28 14 L 27 14 L 27 13 L 23 13 L 23 6 L 17 6 z M 19 9 L 20 9 L 20 14 L 17 14 L 17 15 L 15 15 L 15 14 L 12 14 L 12 11 L 15 11 L 15 10 L 19 10 L 19 9 z "
       id="path935"
       transform="translate(0,1020.3622)" />
    <g
       transform="translate(4,1018.1122)"
       id="g4219">
      <path
         inkscape:connector-curvature="0"
         id="path4211"
         d="m 0,23.25 0,-3 1,0 0,-1 1,0 0,-1 3,0 0,1 1,0 0,-8 4,0 0,1 -3,0 0,11 -1,0 0,1 -1,0 0,1 -3,0 0,-1 -1,0 0,-1 z"
         style="fill:#000000;fill-opacity:1;fill-rule:evenodd;stroke:none;stroke-width:1px;stroke-linecap:butt;stroke-linejoin:miter;stroke-opacity:1" />
      <path
         inkscape:connector-curvature="0"
         id="path4213"
         d="m 10,10.25 4,0 0,1 -4,0 z"
         style="fill:#000000;fill-opacity:1;fill-rule:evenodd;stroke:none;stroke-width:1px;stroke-linecap:butt;stroke-linejoin:miter;stroke-opacity:1" />
      <path
         inkscape:connector-curvature="0"
         id="path4215"
         d="m 14,9.25 4,0 0,8 1,0 0,-1 3,0 0,1 1,0 0,1 1,0 0,3 -1,0 0,1 -1,0 0,1 -3,0 0,-1 -1,0 0,-1 -1,0 0,-11 -3,0 z"
         style="fill:#000000;fill-opacity:1;fill-rule:evenodd;stroke:none;stroke-width:1px;stroke-linecap:butt;stroke-linejoin:miter;stroke-opacity:1" />
      <path
         inkscape:connector-curvature="0"
         id="path4217"
         d="m 8,26.25 0,-9 2,0 0,1 1,0 0,1 2,0 0,-1 1,0 0,-1 2,0 0,9 -2,0 0,-6 -1,0 0,1 -2,0 0,-1 -1,0 0,6 z"
         style="fill:#000000;fill-opacity:1;fill-rule:evenodd;stroke:none;stroke-width:1px;stroke-linecap:butt;stroke-linejoin:miter;stroke-opacity:1" />
    </g>
  </g>
</svg>
