<?xml version="1.0" encoding="UTF-8" standalone="no"?>
<!-- Created with Inkscape (http://www.inkscape.org/) -->

<svg
   xmlns:dc="http://purl.org/dc/elements/1.1/"
   xmlns:cc="http://creativecommons.org/ns#"
   xmlns:rdf="http://www.w3.org/1999/02/22-rdf-syntax-ns#"
   xmlns:svg="http://www.w3.org/2000/svg"
   xmlns="http://www.w3.org/2000/svg"
   xmlns:sodipodi="http://sodipodi.sourceforge.net/DTD/sodipodi-0.dtd"
   xmlns:inkscape="http://www.inkscape.org/namespaces/inkscape"
   width="170mm"
   height="76mm"
   viewBox="0 0 170 76"
   version="1.1"
   id="svg8"
   inkscape:export-filename="/Users/toddcope/T3/Website/apps/omo/images/icon.png"
   inkscape:export-xdpi="25.400002"
   inkscape:export-ydpi="25.400002"
   inkscape:version="0.92.2 5c3e80d, 2017-08-06"
   sodipodi:docname="site_icon.svg">
  <defs
     id="defs2" />
  <sodipodi:namedview
     id="base"
     pagecolor="#ffffff"
     bordercolor="#666666"
     borderopacity="1.0"
     inkscape:pageopacity="0.0"
     inkscape:pageshadow="2"
     inkscape:zoom="0.49497475"
     inkscape:cx="321.76492"
     inkscape:cy="123.06019"
     inkscape:document-units="mm"
     inkscape:current-layer="layer1"
     showgrid="true"
     inkscape:window-width="1920"
     inkscape:window-height="1035"
     inkscape:window-x="0"
     inkscape:window-y="1"
     inkscape:window-maximized="1">
    <inkscape:grid
       type="xygrid"
       id="grid815" />
  </sodipodi:namedview>
  <metadata
     id="metadata5">
    <rdf:RDF>
      <cc:Work
         rdf:about="">
        <dc:format>image/svg+xml</dc:format>
        <dc:type
           rdf:resource="http://purl.org/dc/dcmitype/StillImage" />
        <dc:title></dc:title>
      </cc:Work>
    </rdf:RDF>
  </metadata>
  <g
     inkscape:label="Layer 1"
     inkscape:groupmode="layer"
     id="layer1"
     transform="translate(0,-221)">
    <rect
       style="opacity:1;fill:#515151;fill-opacity:1;stroke:none;stroke-width:0.26458332;stroke-opacity:0.5"
       id="rect916"
       width="170.39166"
       height="76.199989"
       x="0"
       y="220.8"
       ry="6.8987988e-06" />
    <path
       style="fill:#ffffff;fill-rule:evenodd;stroke:none;stroke-width:0.26458332px;stroke-linecap:butt;stroke-linejoin:miter;stroke-opacity:1;fill-opacity:0.03317536"
       d="M 105.83333,216.56666 101.6,313.93333 h 29.63333 l -12.7,-101.6 z"
       id="path924"
       inkscape:connector-curvature="0" />
    <path
       style="fill:#ffffff;fill-rule:evenodd;stroke:none;stroke-width:0.26458332px;stroke-linecap:butt;stroke-linejoin:miter;stroke-opacity:1;fill-opacity:0.03317536"
       d="M 12.7,305.46666 76.199999,208.1 l 8.466667,4.23333 -42.333333,101.6 z"
       id="path922"
       inkscape:connector-curvature="0" />
    <g
       transform="matrix(3.1749939,0,0,3.1749939,32.612601,-3031.4437)"
       id="layer1-9"
       inkscape:label="Layer 1">
      <path
         inkscape:connector-curvature="0"
         style="fill:#000000;fill-opacity:0.25098039;fill-rule:evenodd;stroke:none;stroke-width:1px;stroke-linecap:butt;stroke-linejoin:miter;stroke-opacity:1"
         d="m 18,1027.3622 v 1 h -4 v 1 h -4 v 7 H 6 v 1 H 5 v 1 H 4 v 5 h 1 v 1 h 1 v 1 h 5 v -1 h 1 v 2 h 4 v -5 h 2 v 5 h 4 v -4 h 1 v 1 h 5 v -1 h 1 v -1 h 1 v -5 h -1 v -1 h -1 v -1 h -4 v -7 z m 2,3 h 1 v 5 h -3 v 1 h -2 v -1 h -3 v -3 h 3 v -1 h 4 z"
         id="path940" />
      <path
         transform="translate(0,1020.3622)"
         id="path935"
         d="M 17,6 V 7 H 13 V 8 H 9 v 7 H 5 v 1 H 4 v 1 H 3 v 5 h 1 v 1 h 1 v 1 h 5 v -1 h 1 v 2 h 4 v -5 h 2 v 5 h 4 v -4 h 1 v 1 h 5 v -1 h 1 v -1 h 1 V 15 H 28 V 14 H 27 V 13 H 23 V 6 Z m 2,3 h 1 v 5 h -3 v 1 h -2 v -1 h -3 v -3 h 3 v -1 h 4 z"
         style="fill:#ffffff;fill-opacity:1;fill-rule:evenodd;stroke:none;stroke-width:1px;stroke-linecap:butt;stroke-linejoin:miter;stroke-opacity:1"
         inkscape:connector-curvature="0" />
      <g
         id="g4219"
         transform="translate(4,1018.1122)">
        <path
           style="fill:#000000;fill-opacity:1;fill-rule:evenodd;stroke:none;stroke-width:1px;stroke-linecap:butt;stroke-linejoin:miter;stroke-opacity:1"
           d="m 0,23.25 v -3 h 1 v -1 h 1 v -1 h 3 v 1 h 1 v -8 h 4 v 1 H 7 v 11 H 6 v 1 H 5 v 1 H 2 v -1 H 1 v -1 z"
           id="path4211"
           inkscape:connector-curvature="0" />
        <path
           style="fill:#000000;fill-opacity:1;fill-rule:evenodd;stroke:none;stroke-width:1px;stroke-linecap:butt;stroke-linejoin:miter;stroke-opacity:1"
           d="m 10,10.25 h 4 v 1 h -4 z"
           id="path4213"
           inkscape:connector-curvature="0" />
        <path
           style="fill:#000000;fill-opacity:1;fill-rule:evenodd;stroke:none;stroke-width:1px;stroke-linecap:butt;stroke-linejoin:miter;stroke-opacity:1"
           d="m 14,9.25 h 4 v 8 h 1 v -1 h 3 v 1 h 1 v 1 h 1 v 3 h -1 v 1 h -1 v 1 h -3 v -1 h -1 v -1 h -1 v -11 h -3 z"
           id="path4215"
           inkscape:connector-curvature="0" />
        <path
           style="fill:#000000;fill-opacity:1;fill-rule:evenodd;stroke:none;stroke-width:1px;stroke-linecap:butt;stroke-linejoin:miter;stroke-opacity:1"
           d="m 8,26.25 v -9 h 2 v 1 h 1 v 1 h 2 v -1 h 1 v -1 h 2 v 9 h -2 v -6 h -1 v 1 h -2 v -1 h -1 v 6 z"
           id="path4217"
           inkscape:connector-curvature="0" />
      </g>
    </g>
    <path
       style="fill:#ffffff;fill-rule:evenodd;stroke:none;stroke-width:0.26458332px;stroke-linecap:butt;stroke-linejoin:miter;stroke-opacity:1;fill-opacity:0.03317536"
       d="M -12.7,254.66666 50.799999,208.1 -8.4666666,288.53333 Z"
       id="path920"
       inkscape:connector-curvature="0" />
    <path
       style="fill:#ffffff;fill-rule:evenodd;stroke:none;stroke-width:0.26458332px;stroke-linecap:butt;stroke-linejoin:miter;stroke-opacity:1;fill-opacity:0.03317536"
       d="m 139.7,212.33333 29.63333,101.6 29.63333,-21.16667 -42.33333,-80.43333 z"
       id="path926"
       inkscape:connector-curvature="0" />
  </g>
</svg>
